<svg xmlns="http://www.w3.org/2000/svg" viewBox="0 0 200 280"><defs><linearGradient id="plate" x2="1" y2="1"><stop stop-color="#edf4f8" stop-opacity=".94"/><stop offset=".5" stop-color="#c4d5e1" stop-opacity=".65"/><stop offset="1" stop-color="#e5eef5"/></linearGradient></defs><path d="M35 12H165Q183 12 184 31L192 205Q193 220 176 222H151V252Q151 268 135 268H65Q49 268 49 252V222H24Q7 220 8 205L16 31Q17 12 35 12Z" fill="url(#plate)" stroke="#788f9e" stroke-width="3"/><path d="M35 17H164Q179 18 180 32" fill="none" stroke="white" stroke-width="3"/><g fill="#fafcfe" stroke="#8295a3" stroke-width="2"><circle cx="40" cy="40" r="5"/><circle cx="160" cy="40" r="5"/><circle cx="40" cy="90" r="5"/><circle cx="160" cy="90" r="5"/><circle cx="40" cy="185" r="5"/><circle cx="160" cy="185" r="5"/><circle cx="67" cy="246" r="4"/><circle cx="133" cy="246" r="4"/><rect x="34" y="117" width="8" height="40" rx="4"/><rect x="158" y="117" width="8" height="40" rx="4"/><rect x="63" y="55" width="74" height="7" rx="3"/><rect x="63" y="80" width="74" height="7" rx="3"/><rect x="65" y="194" width="70" height="7" rx="3"/><rect x="65" y="216" width="70" height="7" rx="3"/></g><path d="M73 112H127V174H73Z" fill="none" stroke="#9babba" stroke-dasharray="4 4"/><text x="100" y="147" text-anchor="middle" fill="#667c8b" font-family="sans-serif" font-size="10">2WD PLATE</text></svg>
