{"scene":0,"scenes":[{"nodes":[0]}],"asset":{"version":"2.0","generator":"https://github.com/mikedh/trimesh"},"accessors":[{"componentType":5125,"type":"SCALAR","bufferView":0,"count":36,"max":[7],"min":[0]},{"componentType":5126,"type":"VEC3","byteOffset":0,"bufferView":1,"count":8,"max":[34.29999923706055,26.700000762939453,0.800000011920929],"min":[-34.29999923706055,-26.700000762939453,-0.800000011920929]},{"componentType":5121,"normalized":true,"type":"VEC4","byteOffset":0,"bufferView":2,"count":8,"max":[0,105,170,255],"min":[0,105,170,255]},{"componentType":5126,"type":"VEC3","byteOffset":0,"bufferView":3,"count":8,"max":[24.0,25.25,8.600000381469727],"min":[-20.0,20.75,0.6000000238418579]},{"componentType":5121,"normalized":true,"type":"VEC4","byteOffset":0,"bufferView":4,"count":8,"max":[35,35,35,255],"min":[35,35,35,255]},{"componentType":5126,"type":"VEC3","byteOffset":0,"bufferView":5,"count":8,"max":[25.0,-20.75,8.600000381469727],"min":[-3.0,-25.25,0.6000000238418579]},{"componentType":5126,"type":"VEC3","byteOffset":0,"bufferView":6,"count":8,"max":[-24.0,17.0,11.800000190734863],"min":[-36.0,1.0,0.800000011920929]},{"componentType":5121,"normalized":true,"type":"VEC4","byteOffset":0,"bufferView":7,"count":8,"max":[180,185,190,255],"min":[180,185,190,255]},{"componentType":5126,"type":"VEC3","byteOffset":0,"bufferView":8,"count":8,"max":[-21.0,-12.5,11.800000190734863],"min":[-35.0,-21.5,0.800000011920929]},{"componentType":5121,"normalized":true,"type":"VEC4","byteOffset":0,"bufferView":9,"count":8,"max":[25,25,25,255],"min":[25,25,25,255]},{"componentType":5126,"type":"VEC3","byteOffset":0,"bufferView":10,"count":8,"max":[23.0,1.0,4.800000190734863],"min":[-11.0,-9.0,0.800000011920929]},{"componentType":5126,"type":"VEC3","byteOffset":0,"bufferView":11,"count":8,"max":[-11.0,21.0,4.800000190734863],"min":[-17.0,15.0,0.800000011920929]},{"componentType":5121,"normalized":true,"type":"VEC4","byteOffset":0,"bufferView":12,"count":8,"max":[205,205,205,255],"min":[205,205,205,255]},{"componentType":5126,"type":"VEC3","byteOffset":0,"bufferView":13,"count":8,"max":[22.0,13.0,7.800000190734863],"min":[14.0,3.0,0.800000011920929]}],"meshes":[{"name":"pcb","extras":{"shape":"box","extents":[68.6,53.4,1.6]},"primitives":[{"attributes":{"POSITION":1,"COLOR_0":2},"indices":0,"mode":4}]},{"name":"digital_header","extras":{"shape":"box","extents":[44.0,4.5,8.0]},"primitives":[{"attributes":{"POSITION":3,"COLOR_0":4},"indices":0,"mode":4}]},{"name":"power_analog_header","extras":{"shape":"box","extents":[28.0,4.5,8.0]},"primitives":[{"attributes":{"POSITION":5,"COLOR_0":4},"indices":0,"mode":4}]},{"name":"usb_b","extras":{"shape":"box","extents":[12.0,16.0,11.0]},"primitives":[{"attributes":{"POSITION":6,"COLOR_0":7},"indices":0,"mode":4}]},{"name":"barrel_jack","extras":{"shape":"box","extents":[14.0,9.0,11.0]},"primitives":[{"attributes":{"POSITION":8,"COLOR_0":9},"indices":0,"mode":4}]},{"name":"atmega328p","extras":{"shape":"box","extents":[34.0,10.0,4.0]},"primitives":[{"attributes":{"POSITION":10,"COLOR_0":9},"indices":0,"mode":4}]},{"name":"reset_button","extras":{"shape":"box","extents":[6.0,6.0,4.0]},"primitives":[{"attributes":{"POSITION":11,"COLOR_0":12},"indices":0,"mode":4}]},{"name":"icsp","extras":{"shape":"box","extents":[8.0,10.0,7.0]},"primitives":[{"attributes":{"POSITION":13,"COLOR_0":4},"indices":0,"mode":4}]}],"nodes":[{"name":"world","children":[1,2,3,4,5,6,7,8]},{"name":"pcb","mesh":0},{"name":"digital_header","mesh":1},{"name":"power_analog_header","mesh":2},{"name":"usb_b","mesh":3},{"name":"barrel_jack","mesh":4},{"name":"atmega328p","mesh":5},{"name":"reset_button","mesh":6},{"name":"icsp","mesh":7}],"buffers":[{"uri":"data:application/octet-stream;base64,","byteLength":1072}],"bufferViews":[{"buffer":0,"byteOffset":0,"byteLength":144},{"buffer":0,"byteOffset":144,"byteLength":96},{"buffer":0,"byteOffset":240,"byteLength":32},{"buffer":0,"byteOffset":272,"byteLength":96},{"buffer":0,"byteOffset":368,"byteLength":32},{"buffer":0,"byteOffset":400,"byteLength":96},{"buffer":0,"byteOffset":496,"byteLength":96},{"buffer":0,"byteOffset":592,"byteLength":32},{"buffer":0,"byteOffset":624,"byteLength":96},{"buffer":0,"byteOffset":720,"byteLength":32},{"buffer":0,"byteOffset":752,"byteLength":96},{"buffer":0,"byteOffset":848,"byteLength":96},{"buffer":0,"byteOffset":944,"byteLength":32},{"buffer":0,"byteOffset":976,"byteLength":96}]}