{"scene":0,"scenes":[{"nodes":[0]}],"asset":{"version":"2.0","generator":"https://github.com/mikedh/trimesh"},"accessors":[{"componentType":5125,"type":"SCALAR","bufferView":0,"count":36,"max":[7],"min":[0]},{"componentType":5126,"type":"VEC3","byteOffset":0,"bufferView":1,"count":8,"max":[41.5,27.5,4.0],"min":[-41.5,-27.5,-4.0]},{"componentType":5121,"normalized":true,"type":"VEC4","byteOffset":0,"bufferView":2,"count":8,"max":[244,244,240,255],"min":[244,244,240,255]},{"componentType":5126,"type":"VEC3","byteOffset":0,"bufferView":3,"count":8,"max":[41.5,2.0,5.199999809265137],"min":[-41.5,-2.0,4.0]},{"componentType":5121,"normalized":true,"type":"VEC4","byteOffset":0,"bufferView":4,"count":8,"max":[210,210,205,255],"min":[210,210,205,255]},{"componentType":5126,"type":"VEC3","byteOffset":0,"bufferView":5,"count":8,"max":[37.5,-22.600000381469727,4.550000190734863],"min":[-37.5,-23.399999618530273,4.050000190734863]},{"componentType":5121,"normalized":true,"type":"VEC4","byteOffset":0,"bufferView":6,"count":8,"max":[210,210,210,255],"min":[210,210,210,255]},{"componentType":5126,"type":"VEC3","byteOffset":0,"bufferView":7,"count":8,"max":[37.5,-18.600000381469727,4.550000190734863],"min":[-37.5,-19.399999618530273,4.050000190734863]},{"componentType":5126,"type":"VEC3","byteOffset":0,"bufferView":8,"count":8,"max":[37.5,19.399999618530273,4.550000190734863],"min":[-37.5,18.600000381469727,4.050000190734863]},{"componentType":5126,"type":"VEC3","byteOffset":0,"bufferView":9,"count":8,"max":[37.5,23.399999618530273,4.550000190734863],"min":[-37.5,22.600000381469727,4.050000190734863]}],"meshes":[{"name":"body","extras":{"shape":"box","extents":[83.0,55.0,8.0]},"primitives":[{"attributes":{"POSITION":1,"COLOR_0":2},"indices":0,"mode":4}]},{"name":"center_channel","extras":{"shape":"box","extents":[83.0,4.0,1.2]},"primitives":[{"attributes":{"POSITION":3,"COLOR_0":4},"indices":0,"mode":4}]},{"name":"rail_-23","extras":{"shape":"box","extents":[75.0,0.8,0.5]},"primitives":[{"attributes":{"POSITION":5,"COLOR_0":6},"indices":0,"mode":4}]},{"name":"rail_-19","extras":{"shape":"box","extents":[75.0,0.8,0.5]},"primitives":[{"attributes":{"POSITION":7,"COLOR_0":6},"indices":0,"mode":4}]},{"name":"rail_19","extras":{"shape":"box","extents":[75.0,0.8,0.5]},"primitives":[{"attributes":{"POSITION":8,"COLOR_0":6},"indices":0,"mode":4}]},{"name":"rail_23","extras":{"shape":"box","extents":[75.0,0.8,0.5]},"primitives":[{"attributes":{"POSITION":9,"COLOR_0":6},"indices":0,"mode":4}]}],"nodes":[{"name":"world","children":[1,2,3,4,5,6]},{"name":"body","mesh":0},{"name":"center_channel","mesh":1},{"name":"rail_-23","mesh":2},{"name":"rail_-19","mesh":3},{"name":"rail_19","mesh":4},{"name":"rail_23","mesh":5}],"buffers":[{"uri":"data:application/octet-stream;base64,","byteLength":816}],"bufferViews":[{"buffer":0,"byteOffset":0,"byteLength":144},{"buffer":0,"byteOffset":144,"byteLength":96},{"buffer":0,"byteOffset":240,"byteLength":32},{"buffer":0,"byteOffset":272,"byteLength":96},{"buffer":0,"byteOffset":368,"byteLength":32},{"buffer":0,"byteOffset":400,"byteLength":96},{"buffer":0,"byteOffset":496,"byteLength":32},{"buffer":0,"byteOffset":528,"byteLength":96},{"buffer":0,"byteOffset":624,"byteLength":96},{"buffer":0,"byteOffset":720,"byteLength":96}]}